PathFileType	4	(X/Y/Z)	SUBJ82_4_walk_RCNL2025.trc
DataRate	CameraRate	NumFrames	NumMarkers	Units	OrigDataRate	OrigDataStartFrame	OrigNumFrames
100	100	6	25	mm	100	212	242
Frame#	Time	R_Shoulder			L_Shoulder			C7			J_Notch			R_Elbow			L_Elbow			R_Wrist			L_Wrist			R_Asis			L_Asis			Sacral			Thoracic			Sternum			R_Thigh_Lateral			R_Knee_Lateral			R_Shank_Lateral			R_Ankle_Lateral			R_Heel			R_Toe			L_Thigh_Lateral			L_Knee_Lateral			L_Shank_Lateral			L_Ankle_Lateral			L_Heel			L_Toe		
		X1	Y1	Z1	X2	Y2	Z2	X3	Y3	Z3	X4	Y4	Z4	X5	Y5	Z5	X6	Y6	Z6	X7	Y7	Z7	X8	Y8	Z8	X9	Y9	Z9	X10	Y10	Z10	X11	Y11	Z11	X12	Y12	Z12	X13	Y13	Z13	X14	Y14	Z14	X15	Y15	Z15	X16	Y16	Z16	X17	Y17	Z17	X18	Y18	Z18	X19	Y19	Z19	X20	Y20	Z20	X21	Y21	Z21	X22	Y22	Z22	X23	Y23	Z23	X24	Y24	Z24	X25	Y25	Z25
212	2.11000000	1905.546387	1410.724731	-49.094776	1927.557861	1410.005737	-458.074310	1857.711792	1500.477905	-251.513107	1985.695312	1389.001831	-248.151733	1895.456421	1076.047729	52.033947	1793.176025	1080.831787	-506.171112	2066.385071	880.238922	21.026889	1810.226501	818.471008	-490.558334	1954.774414	972.153015	-99.336166	1992.382080	981.613342	-363.924164	1796.111816	993.352478	-272.568237	1770.942017	1264.598877	-267.975647	2013.276978	1211.767700	-241.888474	1815.527710	553.000183	-78.936607	1794.766846	469.295532	-131.878250	1722.752197	251.674606	-79.208405	1675.738892	75.739883	-180.399185	1628.368408	49.886795	-221.548660	1806.823608	42.117401	-199.358536	2030.711548	551.878601	-428.135223	2054.380127	481.696167	-384.460785	2103.225586	257.050751	-422.357117	2156.042725	74.270012	-358.703217	2132.985107	45.214001	-298.634430	2299.761963	88.616783	-354.882355
213	2.12000000	1920.854126	1407.572266	-49.666531	1941.983521	1407.040649	-458.685486	1872.328125	1497.360718	-251.472656	2000.546143	1385.686890	-248.761887	1913.194824	1073.312744	52.443638	1804.183472	1079.075684	-505.480011	2085.997437	879.307892	20.827275	1819.218079	816.566376	-490.190262	1969.184326	969.302795	-99.600761	2007.692261	978.265320	-364.088745	1811.278076	990.200256	-273.776917	1785.553223	1261.716064	-268.672028	2028.064575	1208.544556	-242.464127	1823.875488	551.939026	-79.336464	1802.238647	468.564209	-132.368408	1725.874268	252.158401	-80.035530	1676.393555	77.010559	-181.361588	1628.678833	51.716629	-222.550003	1806.940796	42.128490	-199.572311	2040.283936	546.131714	-427.001312	2068.090820	477.564667	-383.785583	2130.684814	256.336823	-423.175232	2195.604980	76.135567	-360.846405	2175.223877	45.051132	-300.818207	2339.192139	98.422234	-355.948700
214	2.13000000	1936.180176	1404.404907	-50.306072	1956.474487	1404.095581	-459.375153	1887.011963	1494.235840	-251.521881	2015.475708	1382.384155	-249.450623	1930.752441	1070.505371	52.585754	1815.478516	1077.296997	-504.983948	2105.133667	878.038086	20.522282	1828.856812	814.668640	-489.921188	1983.657593	966.406067	-99.826065	2023.083008	974.913513	-364.225159	1826.534180	987.087219	-275.083923	1800.255249	1258.806763	-269.400665	2042.962524	1205.323486	-243.088165	1832.696045	550.858826	-79.684288	1810.171021	467.773560	-132.788757	1729.395874	252.762817	-80.726593	1677.201050	78.495773	-182.133209	1629.044556	53.855804	-223.293289	1807.121094	42.148350	-199.747406	2050.494873	540.493042	-425.951630	2082.557129	473.832489	-383.259979	2157.434326	256.322235	-424.109528	2232.189941	78.711555	-362.916260	2214.294434	45.854015	-302.935699	2375.371094	107.909439	-356.617920
215	2.14000000	1951.537964	1401.277710	-51.005005	1971.045898	1401.204102	-460.136658	1901.805176	1491.158936	-251.708603	2030.497437	1379.152832	-250.217606	1948.099731	1067.673950	52.462074	1827.121704	1075.511475	-504.708923	2123.757446	876.454773	20.112572	1839.173584	812.783112	-489.770691	1998.217529	963.504211	-100.020874	2038.541138	971.638550	-364.353271	1841.875244	984.064758	-276.470886	1815.061035	1255.922363	-270.139435	2057.974609	1202.154053	-243.759766	1842.046753	549.797302	-79.936584	1818.597046	466.951355	-133.093903	1733.390381	253.504745	-81.212799	1678.177368	80.235977	-182.642792	1629.495605	56.364799	-223.708496	1807.382446	42.181442	-199.860855	2062.057129	535.347717	-425.121094	2098.077881	470.675873	-382.969086	2183.339600	256.790405	-425.128540	2265.436523	81.449905	-364.803101	2249.567627	47.144588	-304.811798	2408.035400	116.338364	-356.879791
216	2.15000000	1966.945190	1398.241821	-51.759720	1985.712524	1398.400879	-460.965027	1916.737183	1488.180542	-252.056870	2045.623413	1376.046753	-251.064194	1965.208984	1064.868530	52.079163	1839.167969	1073.732910	-504.669495	2141.830078	874.586334	19.597044	1850.196960	810.916626	-489.758423	2012.894409	960.640747	-100.198982	2054.070068	968.518860	-364.496735	1857.309082	981.178528	-277.914215	1829.983276	1253.109619	-270.867310	2073.102783	1199.085693	-244.487091	1851.948853	548.793823	-80.057732	1827.543701	466.139221	-133.237457	1737.898315	254.407547	-81.446579	1679.332275	82.278938	-182.845673	1630.074341	59.307388	-223.773438	1807.740112	42.229523	-199.894485	2075.553955	531.060242	-424.660706	2114.817139	468.194977	-382.973419	2208.176025	257.458008	-426.176056	2295.080322	83.816742	-366.413055	2280.586914	48.417271	-306.317993	2437.027344	123.015747	-356.739258
217	2.16000000	1982.424683	1395.343262	-52.569748	2000.485352	1395.718262	-461.859650	1931.819824	1485.345581	-252.565323	2060.864014	1373.111816	-251.992889	1982.053101	1062.135864	51.446720	1851.665039	1071.972290	-504.869659	2159.312744	872.462250	18.972221	1861.950439	809.076691	-489.900620	2027.728027	957.855835	-100.379257	2069.692627	965.627991	-364.682190	1872.860474	978.465576	-279.384277	1845.034058	1250.406494	-271.565094	2088.348389	1196.164673	-245.285217	1862.386963	547.882385	-80.029671	1837.024536	465.380005	-133.183228	1742.933716	255.506012	-81.400131	1680.679810	84.669273	-182.726532	1630.831909	62.739376	-223.504639	1808.205688	42.289570	-199.838654	2091.313232	527.908875	-424.695221	2132.788330	466.407043	-383.299194	2231.658936	258.009674	-427.185089	2320.985840	85.365501	-367.675903	2307.135254	49.203430	-307.416046	2462.308594	127.395721	-356.201843
